<?xml version="1.0" encoding="UTF-8" standalone="no"?>
<!DOCTYPE svg PUBLIC "-//W3C//DTD SVG 1.1//EN"
 "http://www.w3.org/Graphics/SVG/1.1/DTD/svg11.dtd">
<!-- Generated by graphviz version 2.40.1 (20161225.0304)
 -->
<!-- Title: dependencies Pages: 1 -->
<svg width="1028pt" height="284pt"
 viewBox="0.00 0.00 1028.00 284.00" xmlns="http://www.w3.org/2000/svg" xmlns:xlink="http://www.w3.org/1999/xlink">
<g id="graph0" class="graph" transform="scale(1 1) rotate(0) translate(4 280)">
<title>dependencies</title>
<polygon fill="#ffffff" stroke="transparent" points="-4,4 -4,-280 1024,-280 1024,4 -4,4"/>
<text text-anchor="start" x="489.0091" y="-42.4" font-family="sans-serif" font-weight="bold" font-size="14.00" fill="#000000">Legend</text>
<polygon fill="#ffffb3" stroke="transparent" points="276,-10 276,-30 296,-30 296,-10 276,-10"/>
<text text-anchor="start" x="299.629" y="-15.4" font-family="sans-serif" font-size="14.00" fill="#000000"> &#160;Declarations</text>
<polygon fill="#8dd3c7" stroke="transparent" points="389,-10 389,-30 409,-30 409,-10 389,-10"/>
<text text-anchor="start" x="412.7251" y="-15.4" font-family="sans-serif" font-size="14.00" fill="#000000"> &#160;Module</text>
<polygon fill="#80b1d3" stroke="transparent" points="475,-10 475,-30 495,-30 495,-10 475,-10"/>
<text text-anchor="start" x="498.7812" y="-15.4" font-family="sans-serif" font-size="14.00" fill="#000000"> &#160;Bootstrap</text>
<polygon fill="#fdb462" stroke="transparent" points="572,-10 572,-30 592,-30 592,-10 572,-10"/>
<text text-anchor="start" x="595.6732" y="-15.4" font-family="sans-serif" font-size="14.00" fill="#000000"> &#160;Providers</text>
<polygon fill="#fb8072" stroke="transparent" points="668,-10 668,-30 688,-30 688,-10 668,-10"/>
<text text-anchor="start" x="691.7258" y="-15.4" font-family="sans-serif" font-size="14.00" fill="#000000"> &#160;Exports</text>
<g id="clust1" class="cluster">
<title>cluster_AppModule</title>
<polygon fill="none" stroke="#000000" stroke-dasharray="1,5" points="8,-70 8,-268 298,-268 298,-70 8,-70"/>
</g>
<g id="clust2" class="cluster">
<title>cluster_AppModule_declarations</title>
<polygon fill="none" stroke="#000000" points="168,-78 168,-130 290,-130 290,-78 168,-78"/>
</g>
<g id="clust4" class="cluster">
<title>cluster_AppModule_imports</title>
<polygon fill="none" stroke="#000000" points="16,-78 16,-130 160,-130 160,-78 16,-78"/>
</g>
<g id="clust6" class="cluster">
<title>cluster_AppModule_bootstrap</title>
<polygon fill="none" stroke="#000000" points="96,-208 96,-260 220,-260 220,-208 96,-208"/>
</g>
<g id="clust14" class="cluster">
<title>cluster_Tab1PageModule</title>
<polygon fill="none" stroke="#000000" stroke-dasharray="1,5" points="306,-70 306,-195 438,-195 438,-70 306,-70"/>
</g>
<g id="clust15" class="cluster">
<title>cluster_Tab1PageModule_declarations</title>
<polygon fill="none" stroke="#000000" points="328,-78 328,-130 416,-130 416,-78 328,-78"/>
</g>
<g id="clust21" class="cluster">
<title>cluster_Tab2PageModule</title>
<polygon fill="none" stroke="#000000" stroke-dasharray="1,5" points="446,-70 446,-195 578,-195 578,-70 446,-70"/>
</g>
<g id="clust22" class="cluster">
<title>cluster_Tab2PageModule_declarations</title>
<polygon fill="none" stroke="#000000" points="468,-78 468,-130 556,-130 556,-78 468,-78"/>
</g>
<g id="clust28" class="cluster">
<title>cluster_Tab3PageModule</title>
<polygon fill="none" stroke="#000000" stroke-dasharray="1,5" points="586,-70 586,-195 718,-195 718,-70 586,-70"/>
</g>
<g id="clust29" class="cluster">
<title>cluster_Tab3PageModule_declarations</title>
<polygon fill="none" stroke="#000000" points="608,-78 608,-130 696,-130 696,-78 608,-78"/>
</g>
<g id="clust35" class="cluster">
<title>cluster_TabsPageModule</title>
<polygon fill="none" stroke="#000000" stroke-dasharray="1,5" points="726,-70 726,-195 1012,-195 1012,-70 726,-70"/>
</g>
<g id="clust36" class="cluster">
<title>cluster_TabsPageModule_declarations</title>
<polygon fill="none" stroke="#000000" points="918,-78 918,-130 1004,-130 1004,-78 918,-78"/>
</g>
<g id="clust38" class="cluster">
<title>cluster_TabsPageModule_imports</title>
<polygon fill="none" stroke="#000000" points="734,-78 734,-130 910,-130 910,-78 734,-78"/>
</g>
<!-- AppComponent -->
<g id="node1" class="node">
<title>AppComponent</title>
<polygon fill="#ffffb3" stroke="#000000" points="281.9399,-122 176.0601,-122 176.0601,-86 281.9399,-86 281.9399,-122"/>
<text text-anchor="middle" x="229" y="-99.8" font-family="Times,serif" font-size="14.00" fill="#000000">AppComponent</text>
</g>
<!-- AppModule -->
<g id="node2" class="node">
<title>AppModule</title>
<polygon fill="#8dd3c7" stroke="#000000" points="199.6571,-187 196.6571,-191 175.6571,-191 172.6571,-187 116.3429,-187 116.3429,-151 199.6571,-151 199.6571,-187"/>
<text text-anchor="middle" x="158" y="-164.8" font-family="Times,serif" font-size="14.00" fill="#000000">AppModule</text>
</g>
<!-- AppComponent&#45;&gt;AppModule -->
<g id="edge1" class="edge">
<title>AppComponent&#45;&gt;AppModule</title>
<path fill="none" stroke="#000000" d="M188.0544,-122.1061C188.0544,-122.1061 188.0544,-140.991 188.0544,-140.991"/>
<polygon fill="#000000" stroke="#000000" points="184.5544,-140.9909 188.0544,-150.991 191.5544,-140.991 184.5544,-140.9909"/>
</g>
<!-- AppComponent  -->
<g id="node4" class="node">
<title>AppComponent </title>
<polygon fill="#80b1d3" stroke="#000000" points="212.439,-252 103.561,-252 103.561,-216 212.439,-216 212.439,-252"/>
<text text-anchor="middle" x="158" y="-229.8" font-family="Times,serif" font-size="14.00" fill="#000000">AppComponent </text>
</g>
<!-- AppModule&#45;&gt;AppComponent  -->
<g id="edge3" class="edge">
<title>AppModule&#45;&gt;AppComponent </title>
<path fill="none" stroke="#000000" stroke-dasharray="1,5" d="M158,-187.1061C158,-187.1061 158,-205.991 158,-205.991"/>
<polygon fill="#000000" stroke="#000000" points="154.5001,-205.9909 158,-215.991 161.5001,-205.991 154.5001,-205.9909"/>
</g>
<!-- AppRoutingModule -->
<g id="node3" class="node">
<title>AppRoutingModule</title>
<polygon fill="#8dd3c7" stroke="#000000" points="152.2744,-122 149.2744,-126 128.2744,-126 125.2744,-122 23.7256,-122 23.7256,-86 152.2744,-86 152.2744,-122"/>
<text text-anchor="middle" x="88" y="-99.8" font-family="Times,serif" font-size="14.00" fill="#000000">AppRoutingModule</text>
</g>
<!-- AppRoutingModule&#45;&gt;AppModule -->
<g id="edge2" class="edge">
<title>AppRoutingModule&#45;&gt;AppModule</title>
<path fill="none" stroke="#000000" d="M134.2795,-122.1061C134.2795,-122.1061 134.2795,-140.991 134.2795,-140.991"/>
<polygon fill="#000000" stroke="#000000" points="130.7795,-140.9909 134.2795,-150.991 137.7795,-140.991 130.7795,-140.9909"/>
</g>
<!-- Tab1Page -->
<g id="node5" class="node">
<title>Tab1Page</title>
<polygon fill="#ffffb3" stroke="#000000" points="407.979,-122 336.021,-122 336.021,-86 407.979,-86 407.979,-122"/>
<text text-anchor="middle" x="372" y="-99.8" font-family="Times,serif" font-size="14.00" fill="#000000">Tab1Page</text>
</g>
<!-- Tab1PageModule -->
<g id="node6" class="node">
<title>Tab1PageModule</title>
<polygon fill="#8dd3c7" stroke="#000000" points="429.5298,-187 426.5298,-191 405.5298,-191 402.5298,-187 314.4702,-187 314.4702,-151 429.5298,-151 429.5298,-187"/>
<text text-anchor="middle" x="372" y="-164.8" font-family="Times,serif" font-size="14.00" fill="#000000">Tab1PageModule</text>
</g>
<!-- Tab1Page&#45;&gt;Tab1PageModule -->
<g id="edge4" class="edge">
<title>Tab1Page&#45;&gt;Tab1PageModule</title>
<path fill="none" stroke="#000000" d="M372,-122.1061C372,-122.1061 372,-140.991 372,-140.991"/>
<polygon fill="#000000" stroke="#000000" points="368.5001,-140.9909 372,-150.991 375.5001,-140.991 368.5001,-140.9909"/>
</g>
<!-- Tab2Page -->
<g id="node7" class="node">
<title>Tab2Page</title>
<polygon fill="#ffffb3" stroke="#000000" points="547.979,-122 476.021,-122 476.021,-86 547.979,-86 547.979,-122"/>
<text text-anchor="middle" x="512" y="-99.8" font-family="Times,serif" font-size="14.00" fill="#000000">Tab2Page</text>
</g>
<!-- Tab2PageModule -->
<g id="node8" class="node">
<title>Tab2PageModule</title>
<polygon fill="#8dd3c7" stroke="#000000" points="569.5298,-187 566.5298,-191 545.5298,-191 542.5298,-187 454.4702,-187 454.4702,-151 569.5298,-151 569.5298,-187"/>
<text text-anchor="middle" x="512" y="-164.8" font-family="Times,serif" font-size="14.00" fill="#000000">Tab2PageModule</text>
</g>
<!-- Tab2Page&#45;&gt;Tab2PageModule -->
<g id="edge5" class="edge">
<title>Tab2Page&#45;&gt;Tab2PageModule</title>
<path fill="none" stroke="#000000" d="M512,-122.1061C512,-122.1061 512,-140.991 512,-140.991"/>
<polygon fill="#000000" stroke="#000000" points="508.5001,-140.9909 512,-150.991 515.5001,-140.991 508.5001,-140.9909"/>
</g>
<!-- Tab3Page -->
<g id="node9" class="node">
<title>Tab3Page</title>
<polygon fill="#ffffb3" stroke="#000000" points="687.979,-122 616.021,-122 616.021,-86 687.979,-86 687.979,-122"/>
<text text-anchor="middle" x="652" y="-99.8" font-family="Times,serif" font-size="14.00" fill="#000000">Tab3Page</text>
</g>
<!-- Tab3PageModule -->
<g id="node10" class="node">
<title>Tab3PageModule</title>
<polygon fill="#8dd3c7" stroke="#000000" points="709.5298,-187 706.5298,-191 685.5298,-191 682.5298,-187 594.4702,-187 594.4702,-151 709.5298,-151 709.5298,-187"/>
<text text-anchor="middle" x="652" y="-164.8" font-family="Times,serif" font-size="14.00" fill="#000000">Tab3PageModule</text>
</g>
<!-- Tab3Page&#45;&gt;Tab3PageModule -->
<g id="edge6" class="edge">
<title>Tab3Page&#45;&gt;Tab3PageModule</title>
<path fill="none" stroke="#000000" d="M652,-122.1061C652,-122.1061 652,-140.991 652,-140.991"/>
<polygon fill="#000000" stroke="#000000" points="648.5001,-140.9909 652,-150.991 655.5001,-140.991 648.5001,-140.9909"/>
</g>
<!-- TabsPage -->
<g id="node11" class="node">
<title>TabsPage</title>
<polygon fill="#ffffb3" stroke="#000000" points="996.4249,-122 925.5751,-122 925.5751,-86 996.4249,-86 996.4249,-122"/>
<text text-anchor="middle" x="961" y="-99.8" font-family="Times,serif" font-size="14.00" fill="#000000">TabsPage</text>
</g>
<!-- TabsPageModule -->
<g id="node12" class="node">
<title>TabsPageModule</title>
<polygon fill="#8dd3c7" stroke="#000000" points="940.9734,-187 937.9734,-191 916.9734,-191 913.9734,-187 827.0266,-187 827.0266,-151 940.9734,-151 940.9734,-187"/>
<text text-anchor="middle" x="884" y="-164.8" font-family="Times,serif" font-size="14.00" fill="#000000">TabsPageModule</text>
</g>
<!-- TabsPage&#45;&gt;TabsPageModule -->
<g id="edge7" class="edge">
<title>TabsPage&#45;&gt;TabsPageModule</title>
<path fill="none" stroke="#000000" d="M933.3875,-122.1061C933.3875,-122.1061 933.3875,-140.991 933.3875,-140.991"/>
<polygon fill="#000000" stroke="#000000" points="929.8875,-140.9909 933.3875,-150.991 936.8875,-140.991 929.8875,-140.9909"/>
</g>
<!-- TabsPageRoutingModule -->
<g id="node13" class="node">
<title>TabsPageRoutingModule</title>
<polygon fill="#8dd3c7" stroke="#000000" points="901.5912,-122 898.5912,-126 877.5912,-126 874.5912,-122 742.4088,-122 742.4088,-86 901.5912,-86 901.5912,-122"/>
<text text-anchor="middle" x="822" y="-99.8" font-family="Times,serif" font-size="14.00" fill="#000000">TabsPageRoutingModule</text>
</g>
<!-- TabsPageRoutingModule&#45;&gt;TabsPageModule -->
<g id="edge8" class="edge">
<title>TabsPageRoutingModule&#45;&gt;TabsPageModule</title>
<path fill="none" stroke="#000000" d="M864.2795,-122.1061C864.2795,-122.1061 864.2795,-140.991 864.2795,-140.991"/>
<polygon fill="#000000" stroke="#000000" points="860.7795,-140.9909 864.2795,-150.991 867.7795,-140.991 860.7795,-140.9909"/>
</g>
</g>
</svg>
